<svg xmlns="http://www.w3.org/2000/svg" xmlns:xlink="http://www.w3.org/1999/xlink" class="svg-standalone-icon" width="100%" viewBox="65 170.2714209802205 128.90123177705513 129.45715803955898"><g data-paper-data="{&quot;isIcon&quot;:&quot;true&quot;,&quot;iconType&quot;:&quot;icon&quot;,&quot;rawIconId&quot;:&quot;3676&quot;,&quot;selectedEffects&quot;:{&quot;container&quot;:&quot;&quot;,&quot;transformation&quot;:&quot;&quot;,&quot;pattern&quot;:&quot;&quot;},&quot;isDetailed&quot;:false,&quot;iconStyle&quot;:&quot;standalone&quot;,&quot;bounds&quot;:{&quot;x&quot;:65,&quot;y&quot;:170.2714209802205,&quot;width&quot;:128.90123177705513,&quot;height&quot;:129.45715803955898},&quot;fillRule&quot;:&quot;evenodd&quot;,&quot;suitableAsStandaloneIcon&quot;:true}" fill-rule="evenodd"><path style = "fill: rgb(255, 0, 0);" d="M185.44056,193.76312c4.64593,2.13998 8.45137,8.0761 8.45137,13.19344l0.0093,56.08298c0,5.12044 -3.80544,11.05656 -8.45137,13.19655l-47.54477,21.88983c-4.64593,2.13688 -12.25371,2.13688 -16.90274,0l-47.54787,-21.88983c-4.64903,-2.14308 -8.45447,-8.0792 -8.45447,-13.19655v-56.08298c0,-5.11734 3.80544,-11.05346 8.45447,-13.19344l47.54787,-21.88672c4.64903,-2.13998 12.25682,-2.13998 16.90274,0zM141.68262,231.28721l35.89584,-16.52126c3.09832,-1.42665 4.46605,-5.12975 3.0425,-8.22496l-0.33806,-0.74124c-1.42665,-3.09832 -5.12665,-4.46605 -8.22496,-3.03939l-36.98133,17.02059c-3.09832,1.42665 -8.16914,1.42665 -11.26746,0l-36.97203,-17.02059c-3.09832,-1.42665 -6.79831,-0.05893 -8.22496,3.03939l-0.33806,0.74124c-1.42665,3.09832 -0.05893,6.80141 3.03939,8.22807l35.88653,16.51506c3.09832,1.42665 5.63218,5.38096 5.63218,8.79563v38.09164c0,3.41157 2.79128,6.20284 6.20284,6.20284h0.81257c3.41157,0 6.20284,-2.79128 6.20284,-6.20284v-38.08854c0,-3.41157 2.53386,-7.37207 5.63218,-8.79563z" data-paper-data="{&quot;isPathIcon&quot;:true}"></path></g></svg>